<svg width="1918" height="1085" viewBox="0 0 1918 1085" fill="none" xmlns="http://www.w3.org/2000/svg">
<path d="M1766 95.7423C1766 95.7423 1800.84 54.4773 1832 46.7423C1864.5 38.6747 1916.5 61.2423 1916.5 61.2423" stroke="#E76F51" stroke-width="5" stroke-dasharray="30 30"/>
<path d="M1410 293.5C1410 293.5 1427.48 248.42 1448.5 227C1471.77 203.281 1522.5 185 1522.5 185" stroke="#E76F51" stroke-width="5" stroke-dasharray="30 30"/>
<path d="M1561 185C1561 185 1615.95 194.404 1649 185C1687.5 174.048 1733.5 127 1733.5 127" stroke="#E76F51" stroke-width="5" stroke-dasharray="30 30"/>
<path d="M1692 915C1692 915 1733.37 936.118 1750.5 959C1768.53 983.077 1776.5 1075.5 1776.5 1075.5" stroke="#E76F51" stroke-width="5" stroke-dasharray="30 30"/>
<path d="M1474 868C1474 868 1511.5 907.9 1543 920C1584.01 935.756 1655.5 920 1655.5 920" stroke="#E76F51" stroke-width="5" stroke-dasharray="30 30"/>
<path d="M1474 611C1474 611 1449.88 672.209 1444 713.5C1438.19 754.289 1444 819 1444 819" stroke="#E76F51" stroke-width="5" stroke-dasharray="30 30"/>
<path d="M1381 291C1381 291 1455.98 361.642 1475 421.5C1493.51 479.746 1475 578 1475 578" stroke="#E76F51" stroke-width="5" stroke-dasharray="30 30"/>
<path d="M1102 240C1102 240 1178.62 215.568 1228 221.5C1279.02 227.628 1349.5 272 1349.5 272" stroke="#E76F51" stroke-width="5" stroke-dasharray="30 30"/>
<path d="M697 73.5C697 73.5 624.56 103.174 578.5 94C538.191 85.9717 504 1.5 504 1.5" stroke="#E76F51" stroke-width="5" stroke-dasharray="30 30"/>
<path d="M948 239C948 239 915.981 175.304 884 139C847.456 97.5163 758.5 73.5 758.5 73.5" stroke="#E76F51" stroke-width="5" stroke-dasharray="30 30"/>
<path d="M844 588C844 588 925.138 518.296 947 457C970.09 392.262 959 293.5 959 293.5" stroke="#E76F51" stroke-width="5" stroke-dasharray="30 30"/>
<path d="M583.5 691.5C583.5 691.5 622.654 636.654 659 616.5C712.185 587.009 814 601.5 814 601.5" stroke="#E76F51" stroke-width="5" stroke-dasharray="30 30"/>
<path d="M436.5 1083.5C436.5 1083.5 519.082 971.886 546.5 905.5C573.339 840.514 570 727 570 727" stroke="#E76F51" stroke-width="5" stroke-dasharray="30 30"/>
<path d="M173 744C141.594 809.486 71.612 896.6 1 918" stroke="#E76F51" stroke-width="5" stroke-dasharray="30 30"/>
<path d="M140 450C140 450 118.137 529.717 123.5 581C128.992 633.516 168.5 708.5 168.5 708.5" stroke="#E76F51" stroke-width="5" stroke-dasharray="30 30"/>
<path d="M21 135C21 135 115.731 192.22 140 253C162.591 309.578 140 409 140 409" stroke="#E76F51" stroke-width="5" stroke-dasharray="30 30"/>
<path d="M1082.5 248C1082.5 248 1052.26 262.892 1031.5 263C1010.37 263.11 989.5 263 989.5 263" stroke="#E76F51" stroke-width="5" stroke-dasharray="30 30"/>
</svg>
