<svg width="512" height="370" viewBox="0 0 512 370" fill="none" xmlns="http://www.w3.org/2000/svg">
<path d="M436.147 194.471L502.513 128.105L383.995 9.58666L317.629 75.9529L436.147 194.471Z" fill="#D4E4AC"/>
<path d="M132.737 260.849L227.548 355.66L274.957 308.251L180.146 213.441L132.737 260.849Z" fill="#E2804F"/>
<path d="M189.629 90.1849L102.29 175.518L128.727 203.963V222.925L149.697 241.888L179.145 213.443L274.46 308.258L246.267 336.703L274.837 365.147L369.714 270.332L189.629 90.1849Z" fill="#F2BF7E"/>
<path d="M383.272 208.703V189.74L407.339 166.036L317.447 77.3719L284.444 111.967H256L184.889 181.668C197.98 194.759 219.206 194.054 232.296 180.963L256 156.906L345.71 246.803L383.272 208.703Z" fill="#E2804F"/>
<path d="M9.47866 137.589L75.8449 203.955L189.62 90.1798L123.254 23.8136L9.47866 137.589Z" fill="#D4E4AC"/>
<path d="M75.851 213.444L0 137.592L123.259 14.334L199.11 90.185L75.851 213.444ZM18.964 137.592L75.853 194.481L180.149 90.184L123.26 33.296L18.964 137.592Z" fill="black"/>
<path d="M341.333 298.778L246.518 203.962L255.999 194.481L341.333 279.814L355.555 265.592L260.741 170.777L270.222 161.297L374.517 265.592L341.333 298.778Z" fill="black"/>
<path d="M317.629 322.48L222.814 227.666L232.295 218.185L317.629 303.518L327.11 294.037L336.591 303.518L317.629 322.48Z" fill="black"/>
<path d="M293.926 346.185L274.963 327.221L284.444 317.74L293.926 327.221L303.406 317.74L312.887 327.221L293.926 346.185Z" fill="black"/>
<path d="M135.696 237.684L121.424 226.166V206.65L105.436 189.643L115.317 180.355L134.986 201.275V219.683L144.212 227.129L135.696 237.684Z" fill="black"/>
<path d="M270.222 369.888L251.259 350.925L260.74 341.444L270.222 350.925L279.703 341.444L289.184 350.925L270.222 369.888Z" fill="black"/>
<path d="M37.9281 137.598L47.4096 147.08L56.8904 137.599L47.4089 128.118L37.9281 137.598Z" fill="white"/>
<path d="M436.148 203.963L308.147 75.963L383.999 0.110962L511.999 128.111L436.148 203.963ZM327.11 75.963L436.148 185L493.037 128.111L383.999 19.074L327.11 75.963Z" fill="black"/>
<path d="M455.11 128.12L464.59 137.6L474.072 128.119L464.592 118.639L455.11 128.12Z" fill="white"/>
<path d="M222.815 142.332L237.037 156.554L235.167 158.424C224.489 169.102 209.179 173.738 194.371 170.776L222.815 142.332Z" fill="white"/>
<path d="M208.593 196.763C198.291 196.763 187.99 192.842 180.149 185L175.409 180.26L253.225 102.444H281.669L303.41 80.704L312.891 90.185L287.224 115.852H258.78L194.967 179.665C199.051 182.082 203.725 183.374 208.595 183.374C215.759 183.374 222.493 180.583 227.558 175.52L270.225 132.853L293.929 156.556C298.994 161.621 305.73 164.411 312.893 164.411C320.056 164.411 326.791 161.62 331.857 156.557L341.338 166.038C333.741 173.636 323.639 177.82 312.894 177.82C302.149 177.82 292.047 173.636 284.45 166.038L270.227 151.817L237.042 185.002C229.194 192.842 218.893 196.763 208.593 196.763Z" fill="black"/>
<path d="M194.371 104.408L218.072 128.109L227.552 118.628L203.852 94.9276L194.371 104.408Z" fill="black"/>
<path d="M360.256 241.934L350.649 232.362L377.013 205.901V186.925L393.282 170.714L402.854 180.321L390.575 192.556V211.505L360.256 241.934Z" fill="black"/>
<path d="M165.924 246.636L180.146 260.858L199.109 241.895L184.887 227.673L165.924 246.636Z" fill="white"/>
<path d="M189.626 270.336L203.848 284.558L222.811 265.595L208.589 251.373L189.626 270.336Z" fill="white"/>
<path d="M213.328 294.042L227.55 308.263L246.513 289.3L232.291 275.079L213.328 294.042Z" fill="white"/>
<path d="M237.041 317.734L251.262 331.956L270.225 312.993L256.004 298.771L237.041 317.734Z" fill="white"/>
<path d="M180.148 203.963L123.259 260.852L227.499 365.092L284.388 308.203L180.148 203.963ZM142.222 260.851L180.147 222.926L194.369 237.148L156.444 275.073L142.222 260.851ZM203.851 246.629L218.045 260.822L180.12 298.747L165.926 284.554L203.851 246.629ZM189.63 308.259L227.555 270.334L241.721 284.5L203.796 322.425L189.63 308.259ZM213.305 331.934L251.23 294.009L265.424 308.203L227.499 346.128L213.305 331.934Z" fill="black"/>
</svg>
