<svg width="40" height="64" viewBox="0 0 40 64" fill="none" xmlns="http://www.w3.org/2000/svg">
<circle cx="19.6064" cy="58.819" r="5.18095" fill="#292F36"/>
<mask id="mask0_92_2" style="mask-type:alpha" maskUnits="userSpaceOnUse" x="0" y="0" width="40" height="59">
<circle cx="19.6385" cy="19.6385" r="19.6385" fill="#2A9D8F"/>
<path d="M19.6385 58.9156L36.646 29.4578H2.63107L19.6385 58.9156Z" fill="white"/>
</mask>
<g mask="url(#mask0_92_2)">
<circle cx="19.6385" cy="19.6385" r="19.6385" fill="#292F36"/>
<path d="M19.6385 58.9156L36.646 29.4578H2.63107L19.6385 58.9156Z" fill="#292F36"/>
<path d="M54.4897 33.2876C-7.51895 5.37709 22.8563 20.1628 5.83358 19.8998C-56.2863 18.9399 22.0283 -7.79529 25.6413 -19.014C29.2544 -30.2328 11.5704 -6.78497 28.6322 -1.29016C45.6941 4.20465 58.1027 22.0689 54.4897 33.2876Z" fill="#2A9D8F"/>
<path d="M27.9287 19.6267C27.9287 24.2921 24.1865 28.0741 19.5703 28.0741C14.954 28.0741 11.2118 24.2921 11.2118 19.6267C11.2118 14.9614 14.954 11.1794 19.5703 11.1794C24.1865 11.1794 27.9287 14.9614 27.9287 19.6267Z" fill="#292F36"/>
<path d="M29.7101 17.4283L41.5598 23.5469L31.3286 43.3614L21.0974 63.1759L9.24765 57.0573L29.7101 17.4283Z" fill="#2A9D8F"/>
<path d="M14.6286 -0.711102L7.72467 -24.1778L2.64329 -2.46437L-2.43808 19.249L10.7683 21.6381L12.6984 10.4635L14.6286 -0.711102Z" fill="#2A9D8F"/>
</g>
</svg>
