<svg width="194" height="290" viewBox="0 0 194 290" fill="none" xmlns="http://www.w3.org/2000/svg">
<mask id="mask0_166_2" style="mask-type:alpha" maskUnits="userSpaceOnUse" x="0" y="0" width="194" height="290">
<circle cx="96.6584" cy="96.6584" r="96.6584" fill="#2A9D8F"/>
<path d="M96.6584 289.975L180.367 144.988H12.9498L96.6584 289.975Z" fill="white"/>
</mask>
<g mask="url(#mask0_166_2)">
<circle cx="96.6584" cy="96.6584" r="96.6584" fill="#292F36"/>
<path d="M96.6584 289.975L180.367 144.988H12.9498L96.6584 289.975Z" fill="#292F36"/>
<path d="M261.467 184.717C-42.5726 43.7463 106.201 118.787 21.655 119.858C-286.871 123.764 106.166 -31.3677 125.756 -92.1961C145.346 -153.024 54.0549 -24.411 138.031 2.6338C222.007 29.6786 281.057 123.888 261.467 184.717Z" fill="#2A9D8F"/>
<path d="M137.462 96.6004C137.462 119.563 119.043 138.177 96.3225 138.177C73.6018 138.177 55.1831 119.563 55.1831 96.6004C55.1831 73.638 73.6018 55.0234 96.3225 55.0234C119.043 55.0234 137.462 73.638 137.462 96.6004Z" fill="#292F36"/>
<path d="M146.229 85.78L204.552 115.895L154.196 213.419L103.839 310.944L45.5159 280.829L146.229 85.78Z" fill="#2A9D8F"/>
<path d="M82.7134 297.164L141.036 267.049L90.6794 169.524L40.3226 72L-18.0002 102.115L82.7134 297.164Z" fill="#2A9D8F"/>
<path d="M70.6991 2.05932L38.0199 -119L11.6464 -6.30253L-14.7271 106.395L50.3147 117.975L60.5069 60.0173L70.6991 2.05932Z" fill="#2A9D8F"/>
</g>
</svg>
