<svg width="120" height="120" viewBox="0 0 120 120" fill="none" xmlns="http://www.w3.org/2000/svg">
<path d="M48 80.8633L36.0005 60.0745L48 39.2854H71.9993L83.9991 60.0745L71.9993 80.8633H48Z" fill="#E2804F"/>
<path d="M112.537 65.6297C115.646 65.6297 118.167 63.109 118.167 59.9995C118.167 56.8901 115.646 54.3694 112.537 54.3694C109.428 54.3694 106.907 56.8901 106.907 59.9995C106.907 63.109 109.428 65.6297 112.537 65.6297Z" fill="#D4E4AC"/>
<path d="M7.46322 65.6297C10.5727 65.6297 13.0934 63.109 13.0934 59.9995C13.0934 56.8901 10.5727 54.3694 7.46322 54.3694C4.35378 54.3694 1.83307 56.8901 1.83307 59.9995C1.83307 63.109 4.35378 65.6297 7.46322 65.6297Z" fill="#D4E4AC"/>
<path d="M97.1482 28.481C100.258 28.481 102.778 25.9603 102.778 22.8509C102.778 19.7414 100.258 17.2207 97.1482 17.2207C94.0388 17.2207 91.5181 19.7414 91.5181 22.8509C91.5181 25.9603 94.0388 28.481 97.1482 28.481Z" fill="#F2BF7E"/>
<path d="M22.8509 102.779C25.9603 102.779 28.481 100.258 28.481 97.1485C28.481 94.039 25.9603 91.5183 22.8509 91.5183C19.7414 91.5183 17.2207 94.039 17.2207 97.1485C17.2207 100.258 19.7414 102.779 22.8509 102.779Z" fill="#F2BF7E"/>
<path d="M59.9995 13.0936C63.109 13.0936 65.6297 10.5729 65.6297 7.46341C65.6297 4.35396 63.109 1.83325 59.9995 1.83325C56.8901 1.83325 54.3694 4.35396 54.3694 7.46341C54.3694 10.5729 56.8901 13.0936 59.9995 13.0936Z" fill="#D4E4AC"/>
<path d="M59.9995 118.167C63.109 118.167 65.6297 115.646 65.6297 112.537C65.6297 109.428 63.109 106.907 59.9995 106.907C56.8901 106.907 54.3694 109.428 54.3694 112.537C54.3694 115.646 56.8901 118.167 59.9995 118.167Z" fill="#D4E4AC"/>
<path d="M22.8509 28.481C25.9603 28.481 28.481 25.9603 28.481 22.8509C28.481 19.7414 25.9603 17.2207 22.8509 17.2207C19.7414 17.2207 17.2207 19.7414 17.2207 22.8509C17.2207 25.9603 19.7414 28.481 22.8509 28.481Z" fill="#F2BF7E"/>
<path d="M97.1482 102.779C100.258 102.779 102.778 100.258 102.778 97.1485C102.778 94.039 100.258 91.5183 97.1482 91.5183C94.0388 91.5183 91.5181 94.039 91.5181 97.1485C91.5181 100.258 94.0388 102.779 97.1482 102.779Z" fill="#F2BF7E"/>
<path d="M112.537 52.5368C108.984 52.5368 106.005 55.0327 105.256 58.3624H85.1259L77.4506 45.143L93.3284 29.2655C94.4716 29.9492 95.782 30.3143 97.1489 30.3143C99.1423 30.3143 101.016 29.5378 102.426 28.1283C103.836 26.7185 104.612 24.8445 104.612 22.8509C104.612 20.8575 103.836 18.9834 102.426 17.5739L102.426 17.5737C101.016 16.1642 99.1423 15.3877 97.1489 15.3877C95.1553 15.3877 93.2812 16.1639 91.8715 17.5737C89.4094 20.036 89.0313 23.805 90.7362 26.6695L75.5452 41.8608L73.0561 37.5736H61.7866V14.7087C65.0416 13.9057 67.4632 10.9627 67.4632 7.46321C67.463 3.34806 64.1149 0.000244141 59.9998 0.000244141C55.8846 0.000244141 52.5366 3.34806 52.5366 7.46345C52.5366 10.9289 54.9108 13.8497 58.1175 14.6857V37.5734H46.9441L44.4548 41.8608L29.2655 26.6714C29.9491 25.5284 30.3143 24.2175 30.3143 22.8509C30.3143 20.8575 29.5378 18.9834 28.1283 17.5737C26.7185 16.1639 24.8445 15.3877 22.8509 15.3877C20.8575 15.3877 18.9834 16.1642 17.5739 17.5737L17.5737 17.5739C16.1641 18.9834 15.3877 20.8575 15.3877 22.8509C15.3877 24.8445 16.1639 26.7185 17.5737 28.1281C18.9834 29.5378 20.8575 30.3141 22.8509 30.3141C24.2175 30.3141 25.5279 29.9489 26.6714 29.2652L42.5494 45.143L34.8738 58.3622H14.7434C13.9945 55.0322 11.0156 52.5366 7.46297 52.5366C3.34781 52.5368 0 55.8846 0 59.9998C0 64.1149 3.34781 67.463 7.4632 67.463C10.8743 67.463 13.7562 65.1617 14.6433 62.0309H35.0156L42.4943 74.9109L26.6693 90.736C23.8048 89.0311 20.0363 89.4089 17.5737 91.8713C16.1639 93.281 15.3877 95.1551 15.3877 97.1487C15.3877 99.142 16.1641 101.016 17.5737 102.426C18.9834 103.835 20.8575 104.612 22.8509 104.612C24.8445 104.612 26.7185 103.835 28.128 102.426C29.5378 101.016 30.3141 99.1418 30.3141 97.1485C30.3141 95.7818 29.9489 94.4714 29.2652 93.3279L44.3998 78.1934L46.9439 82.575H58.1173V105.314C54.9101 106.15 52.5363 109.071 52.5363 112.536C52.5363 116.651 55.8841 120 59.9995 120C64.1149 120 67.4627 116.651 67.4627 112.536C67.4627 109.036 65.0412 106.093 61.7862 105.291V82.575H73.0556L75.5995 78.1936L90.7362 93.3303C89.0313 96.1945 89.4091 99.9638 91.8715 102.426C93.2812 103.836 95.1553 104.612 97.1489 104.612C99.1423 104.612 101.016 103.835 102.426 102.426C103.836 101.016 104.612 99.142 104.612 97.1487C104.612 95.1551 103.836 93.281 102.426 91.8713C99.9638 89.4092 96.1948 89.0313 93.3302 90.7362L77.5055 74.9112L84.9841 62.0309H105.356C106.244 65.1617 109.125 67.463 112.537 67.463C116.652 67.463 120 64.1152 120 59.9998C120 55.8844 116.652 52.5368 112.537 52.5368ZM94.4658 20.168C95.1825 19.451 96.1352 19.0563 97.1491 19.0563C98.1626 19.0563 99.1155 19.451 99.8323 20.1677L99.8325 20.168C100.549 20.8847 100.944 21.8374 100.944 22.8509C100.944 23.8645 100.549 24.8175 99.8323 25.5345C99.1155 26.2512 98.1628 26.6459 97.1491 26.6459C96.1355 26.6459 95.1825 26.2512 94.4658 25.5345C92.9862 24.0546 92.9862 21.6474 94.4658 20.168ZM25.5338 25.534C24.817 26.2509 23.8643 26.6456 22.8504 26.6456C21.837 26.6456 20.884 26.2509 20.1675 25.534C19.4505 24.8173 19.0559 23.8645 19.0559 22.8506C19.0559 21.8372 19.4505 20.8842 20.1673 20.1677L20.1675 20.1675C20.8842 19.4508 21.837 19.0561 22.8504 19.0561C23.8641 19.0561 24.817 19.4508 25.534 20.1677C26.2507 20.8845 26.6454 21.8372 26.6454 22.8506C26.6454 23.8645 26.2507 24.8175 25.5338 25.534ZM7.4632 63.7945C5.37094 63.7945 3.66867 62.0923 3.66867 60C3.66867 57.9077 5.37094 56.2055 7.4632 56.2055C9.55547 56.2055 11.2577 57.9077 11.2577 60C11.2577 62.0923 9.55547 63.7945 7.4632 63.7945ZM25.5338 99.832C24.817 100.549 23.8643 100.944 22.8504 100.944C21.837 100.944 20.884 100.549 20.167 99.832C19.4503 99.1153 19.0556 98.1626 19.0556 97.1492C19.0556 96.1355 19.4503 95.1825 20.1673 94.4658C20.907 93.7261 21.8787 93.3563 22.8502 93.3563C23.8221 93.3563 24.7936 93.7263 25.5335 94.4658C26.2505 95.1825 26.6452 96.1352 26.6452 97.1492C26.6454 98.1624 26.2507 99.1156 25.5338 99.832ZM94.4658 94.4658C95.9454 92.9864 98.3529 92.9864 99.832 94.4658C100.549 95.1825 100.944 96.1352 100.944 97.1492C100.944 98.1626 100.549 99.1156 99.832 99.8325C99.1153 100.549 98.1626 100.944 97.1489 100.944C96.1352 100.944 95.1823 100.549 94.4655 99.8323C92.9864 98.3527 92.9862 95.9456 94.4658 94.4658ZM56.2055 7.46345C56.2055 5.37118 57.9077 3.66892 60 3.66892C62.0923 3.66892 63.7945 5.37118 63.7945 7.46345C63.7945 9.55571 62.0923 11.258 60 11.258C57.9077 11.258 56.2055 9.55548 56.2055 7.46345ZM63.7943 112.537C63.7943 114.629 62.092 116.331 59.9998 116.331C57.9075 116.331 56.2052 114.629 56.2052 112.537C56.2052 110.444 57.9075 108.742 59.9998 108.742C62.092 108.742 63.7943 110.444 63.7943 112.537ZM70.9434 78.9068H49.0563L38.1218 60.0743L49.0563 41.2418H70.9434L81.878 60.0743L70.9434 78.9068ZM112.537 63.7945C110.444 63.7945 108.742 62.0923 108.742 60C108.742 57.9077 110.444 56.2055 112.537 56.2055C114.629 56.2055 116.331 57.9077 116.331 60C116.331 62.0923 114.629 63.7945 112.537 63.7945Z" fill="black"/>
<path d="M62.0318 58.3633H58.1187V62.032H62.0318V58.3633Z" fill="white"/>
<path d="M67.4126 58.3633H63.7439V62.032H67.4126V58.3633Z" fill="white"/>
<path d="M56.4065 58.3633H52.4934V62.032H56.4065V58.3633Z" fill="white"/>
</svg>
