<svg width="122" height="122" viewBox="0 0 122 122" fill="none" xmlns="http://www.w3.org/2000/svg">
<path d="M38.0073 6.71073C45.0737 3.71982 52.8436 2.06567 61 2.06567C93.604 2.06567 120.035 28.4965 120.035 61.1006C120.035 93.7046 93.604 120.135 60.9998 120.135C28.3955 120.135 1.96486 93.7046 1.96486 61.1006C1.96486 44.6327 8.70774 29.7397 19.5831 19.032" fill="#F2BF7E"/>
<path d="M74.4071 62.8481H70.4371L68.5294 68.6007C68.5294 68.6007 73.235 76.4594 74.3657 76.2459C75.4963 76.0322 87.8324 72.4456 87.8324 72.4456V66.7228L82.0734 60.9702" fill="#D4E4AC"/>
<path d="M76.1599 81.9833L81.8827 91.5212L68.5294 104.875L60.8992 102.967L57.0838 106.782L58.9915 118.228C50.9674 121.966 43.7306 116.32 43.7306 116.32L34.1926 101.059L36.1003 85.7982L22.747 41.9235L39.9157 13.3097L49.4536 19.0325L70.4371 17.1248L85.6981 26.6627L79.9753 34.293L68.6569 55.2765L53.5232 64.8144V70.5372L61.0262 74.3526L66.6854 80.0754L76.1599 81.9833Z" fill="#D4E4AC"/>
<path d="M84.1921 46.3419C84.1921 49.8353 77.867 61.1006 77.867 61.1006C77.867 61.1006 71.5418 49.8351 71.5418 46.3419C71.5418 42.8487 74.3735 40.0167 77.867 40.0167C81.3604 40.0167 84.1921 42.8485 84.1921 46.3419Z" fill="#E2804F"/>
<path d="M101.361 86.4015C101.361 89.8949 95.0354 101.16 95.0354 101.16C95.0354 101.16 88.7102 89.8947 88.7102 86.4015C88.7102 82.9083 91.5419 80.0763 95.0354 80.0763C98.5288 80.0763 101.361 82.908 101.361 86.4015Z" fill="#E2804F"/>
<path d="M34.5946 8.18968C34.5946 11.6831 28.2694 22.9483 28.2694 22.9483C28.2694 22.9483 21.944 11.6829 21.944 8.18968C21.944 4.69647 24.776 1.8645 28.2694 1.8645C31.7629 1.8645 34.5946 4.69624 34.5946 8.18968Z" fill="#E2804F"/>
<path d="M43.4298 59.2932C43.4298 62.7866 37.1047 74.0519 37.1047 74.0519C37.1047 74.0519 30.7795 62.7864 30.7795 59.2932C30.7795 55.8 33.6112 52.968 37.1047 52.968C40.5979 52.968 43.4298 55.7998 43.4298 59.2932Z" fill="#E2804F"/>
<path d="M110.644 36.2009L106.976 43.8312V51.4614L103.014 60.9269L112.405 66.5773H120.035C120.035 66.5773 122.102 54.6444 114.386 34.2206L110.644 36.2009Z" fill="#D4E4AC"/>
<path d="M77.867 64.9092L76.2409 62.0136C75.1448 60.0611 69.677 50.131 69.677 46.3421C69.677 41.8262 73.3508 38.1523 77.8667 38.1523C82.3826 38.1523 86.0565 41.8262 86.0565 46.3421C86.0565 50.131 80.5886 60.0616 79.4928 62.0136L77.867 64.9092ZM77.867 41.8812C75.4074 41.8812 73.4066 43.8823 73.4066 46.3416C73.4066 47.8799 75.4763 52.5989 77.867 57.1817C80.2576 52.5977 82.3274 47.879 82.3274 46.3416C82.3274 43.8823 80.3265 41.8812 77.867 41.8812Z" fill="black"/>
<path d="M95.0354 104.969L93.4093 102.073C92.3133 100.121 86.8454 90.1907 86.8454 86.4018C86.8454 81.8859 90.5192 78.212 95.0351 78.212C99.551 78.212 103.225 81.8859 103.225 86.4018C103.225 90.1907 97.757 100.121 96.6609 102.073L95.0354 104.969ZM95.0354 81.9409C92.5758 81.9409 90.575 83.942 90.575 86.4013C90.575 87.9384 92.6449 92.6574 95.0354 97.2409C97.4261 92.6571 99.4958 87.9384 99.4958 86.4013C99.496 83.942 97.4949 81.9409 95.0354 81.9409Z" fill="black"/>
<path d="M28.2694 26.7573L26.6434 23.8617C25.5473 21.9092 20.0795 11.9791 20.0795 8.1902C20.0795 3.67382 23.7533 0 28.2694 0C32.7856 0 36.4592 3.67382 36.4592 8.18973C36.4592 11.9786 30.9913 21.9092 29.8952 23.8612L28.2694 26.7573ZM28.2694 3.72934C25.8099 3.72934 23.8091 5.73043 23.8091 8.18973C23.8091 9.72807 25.8788 14.447 28.2694 19.0299C30.6601 14.4458 32.7301 9.72712 32.7301 8.18973C32.7298 5.73043 30.729 3.72934 28.2694 3.72934Z" fill="black"/>
<path d="M37.1049 77.8606L35.4789 74.965C34.3828 73.0125 28.9149 63.0824 28.9149 59.2935C28.9149 54.7776 32.5888 51.1038 37.1047 51.1038C41.6206 51.1038 45.2944 54.7776 45.2944 59.2935C45.2944 63.0824 39.8266 73.013 38.7305 74.965L37.1049 77.8606ZM37.1049 54.8326C34.6454 54.8326 32.6445 56.8337 32.6445 59.293C32.6445 60.8314 34.7142 65.5503 37.1049 70.1331C39.4956 65.5491 41.5655 60.8304 41.5655 59.293C41.5653 56.8339 39.5644 54.8326 37.1049 54.8326Z" fill="black"/>
<path d="M30.6494 29.036H26.6715V32.7654H30.6494V29.036Z" fill="white"/>
<path d="M80.1245 66.8259H76.3951V70.5553H80.1245V66.8259Z" fill="white"/>
<path d="M79.5235 37.3659L76.6115 35.0359L82.9333 27.1338L69.9811 19.0387L49.0161 20.9445L40.2047 15.6577L37.4187 18.4437L34.7817 15.8064L39.6267 10.9619L49.8909 17.1205L70.8932 15.2114L88.4626 26.1919L79.5235 37.3659Z" fill="black"/>
<path d="M24.7693 55.789L20.7174 41.607L25.0107 35.1665L28.1138 37.2353L24.777 42.2404L28.3552 54.7644L24.7693 55.789Z" fill="black"/>
<path d="M104.062 18.0381C92.5599 6.53552 77.2667 0.20105 60.9998 0.20105C52.7743 0.20105 44.7938 1.81326 37.2803 4.99336L38.734 8.42771C45.7848 5.44324 53.2761 3.92991 60.9998 3.92991C76.2702 3.92991 90.6269 9.8767 101.425 20.6749C105.294 24.5431 108.535 28.8699 111.108 33.5297L104.739 43.2952V51.1098L100.521 61.8913L111.881 68.8148H117.653C115.998 81.1607 110.383 92.5684 101.425 101.526C90.6274 112.324 76.2707 118.271 60.9998 118.271C60.8601 118.271 60.7207 118.267 60.5813 118.266L59.0587 107.443L61.4692 105.032L69.0977 106.94L84.2234 91.8097L77.3187 80.3167L67.5087 78.3575L61.9398 72.8175L55.0148 69.3817V64.0623L69.3015 56.9465L67.6387 53.6082L51.2855 61.7534V71.6947L59.7395 75.8892L65.6756 81.7947L74.9711 83.651L79.5266 91.2335L67.9535 102.81L60.3252 100.902L55.1068 106.122L56.7948 118.119C53.3643 117.872 49.994 117.321 46.7146 116.481L36.1394 100.618L37.9463 87.97L34.2544 87.4427L32.2461 101.501L41.0494 114.706C33.449 111.882 26.4792 107.431 20.5744 101.526C9.77644 90.7281 3.82965 76.3715 3.82965 61.1005C3.82965 45.6618 9.88891 31.1936 20.8915 20.3606L18.275 17.7028C6.55487 29.2428 0.100311 44.6548 0.100311 61.1005C0.100311 77.3675 6.43478 92.6606 17.9373 104.163C29.4399 115.665 44.733 122 61 122C77.267 122 92.5601 115.665 104.063 104.163C115.565 92.6606 121.9 77.3677 121.9 61.1005C121.9 44.8333 115.565 29.5401 104.062 18.0381ZM112.928 65.0855L105.134 60.3356L108.468 51.8135V44.3672L112.962 37.1954C116.371 44.5959 118.17 52.7092 118.17 61.1005C118.17 62.4365 118.122 63.7654 118.032 65.0855H112.928Z" fill="black"/>
<path d="M69.377 73.6744C68.0901 71.7362 66.9651 69.8059 66.918 69.7249L66.4893 68.9884L69.1049 61.3562H74.4069V65.0855H71.7691L70.572 68.579C71.9633 70.9044 73.6272 73.3987 74.4874 74.3397C76.388 73.8197 81.6347 72.2557 85.5949 71.0609V67.4955L80.5693 62.4759L83.205 59.8374L89.3243 65.9496V73.8288L88.0001 74.2298C85.9552 74.8491 75.6955 77.9499 74.526 78.1712L69.377 73.6744Z" fill="black"/>
<path d="M38.1081 80.2515H34.3787V83.9808H38.1081V80.2515Z" fill="white"/>
</svg>
